<svg width="25" height="25" viewBox="0 0 25 25" fill="none" xmlns="http://www.w3.org/2000/svg">
  <path d="M5.95596 19.1526C6.02546 19.2223 6.10805 19.2777 6.19901 19.3155C6.28996 19.3533 6.38748 19.3727 6.48596 19.3727C6.58445 19.3727 6.68197 19.3533 6.77292 19.3155C6.86387 19.2777 6.94646 19.2223 7.01596 19.1526L18.736 7.43356V15.6226C18.736 15.8215 18.815 16.0122 18.9556 16.1529C19.0963 16.2935 19.287 16.3726 19.486 16.3726C19.6849 16.3726 19.8756 16.2935 20.0163 16.1529C20.1569 16.0122 20.236 15.8215 20.236 15.6226V5.62256C20.2352 5.42389 20.1559 5.23358 20.0154 5.0931C19.8749 4.95262 19.6846 4.87335 19.486 4.87256H9.48596C9.28705 4.87256 9.09628 4.95158 8.95563 5.09223C8.81498 5.23288 8.73596 5.42365 8.73596 5.62256C8.73596 5.82147 8.81498 6.01224 8.95563 6.15289C9.09628 6.29354 9.28705 6.37256 9.48596 6.37256H17.675L5.95596 18.0926C5.8863 18.1621 5.83103 18.2447 5.79332 18.3357C5.75562 18.4266 5.73621 18.5241 5.73621 18.6226C5.73621 18.721 5.75562 18.8185 5.79332 18.9094C5.83103 19.0004 5.8863 19.083 5.95596 19.1526Z" fill="url(#paint0_linear_40_8)"/>
  <defs>
    <linearGradient id="paint0_linear_40_8" x1="20.236" y1="12.1226" x2="5.73621" y2="12.1226" gradientUnits="userSpaceOnUse">
      <stop stop-color="#DF604C"/>
      <stop offset="0.111111" stop-color="#DE7347"/>
      <stop offset="0.222222" stop-color="#DD8E41"/>
      <stop offset="0.333333" stop-color="#DCA93B"/>
      <stop offset="0.444444" stop-color="#82C678"/>
      <stop offset="0.555556" stop-color="#33D4AA"/>
      <stop offset="0.666667" stop-color="#2FBABC"/>
      <stop offset="0.777778" stop-color="#4295C3"/>
      <stop offset="0.888889" stop-color="#4D78C5"/>
      <stop offset="1" stop-color="#5C62CE"/>
    </linearGradient>
  </defs>
</svg>